<svg version="1.1" xmlns="http://www.w3.org/2000/svg" viewBox="0 0 48 48"><path d="M34.521,20.547H12.688c-0.827,0-1.5-0.673-1.5-1.5s0.673-1.5,1.5-1.5h21.834c0.827,0,1.5,0.673,1.5,1.5S35.348,20.547,34.521,20.547z"/><path d="M34.521,27.713H12.688c-0.827,0-1.5-0.673-1.5-1.5s0.673-1.5,1.5-1.5h21.834c0.827,0,1.5,0.673,1.5,1.5C36.021,27.041,35.348,27.713,34.521,27.713z"/><path d="M31.542,34.88H15.667c-0.827,0-1.5-0.673-1.5-1.5s0.673-1.5,1.5-1.5h15.875c0.827,0,1.5,0.673,1.5,1.5S32.369,34.88,31.542,34.88z"/><path d="M40.783,8.692l-7.639-7.31C32.346,0.619,30.804,0,29.699,0H7.774c-1.104,0-2,0.896-2,2v44c0,1.104,0.896,2,2,2h32.453c1.104,0,2-0.896,2-2V12.075C42.228,10.971,41.581,9.456,40.783,8.692z M37.968,41.092c0,1.104-0.896,2-2,2H11.806c-1.104,0-2-0.896-2-2V5.776c0-1.104,0.896-2,2-2h16.518c1.104,0,2,0.896,2,2v3.321c0,1.104,0.896,2,2,2h3.645c1.104,0,2,0.896,2,2V41.092z"/></svg>