<svg xmlns="http://www.w3.org/2000/svg" width="64pt" height="64pt" viewBox="0 0 22.577778 22.577778" version="1.1">
	<g transform="translate(0,-274.42223)">
		<path
			d="m 11.537453,290.45599 -0.75644,-0.84847 c -0.8524317,-0.95602 -0.333915,-2.51235 0.921701,-2.76512 l 1.117194,-0.22572 c 0.482161,-0.0971 0.899465,-0.39534 1.147421,-0.82026 l 0.573712,-0.98282 c 0.32277,-0.55315 0.89317,-0.82618 1.462497,-0.82228 v 6.9e-4 c 0.569324,0.004 1.135558,0.28701 1.449729,0.8451 l 0.558933,0.99024 c 0.241311,0.42871 0.654067,0.7332 1.134661,0.83772 l 0.74166,0.16258 v -4.43317 c 0,-1.21987 -0.997053,-2.21692 -2.216919,-2.21692 H 9.5596928 c -0.3855877,0 -0.728662,-0.23174 -0.8733309,-0.58916 L 8.1556445,278.28108 C 7.9065911,277.66577 7.3085817,277.25996 6.64478,277.25996 H 3.4987718 c -1.392457,0 -2.52863397,1.13686 -2.52863397,2.5293 v 8.28725 H 8.6178386 c 0.1889156,7.2e-4 0.3418774,0.15369 0.3426135,0.34261 6.878e-4,0.18997 -0.1526523,0.34457 -0.3426135,0.34531 H 0.97013783 v 0.57438 c 0,1.38446 1.12872337,2.51729 2.51318337,2.51318 l 8.4776998,-0.0252 c 0.05972,-0.51389 -0.0962,-1.00364 -0.423568,-1.3708 z M 9.5415559,278.36437 c -0.1899578,6.9e-4 -0.3433427,0.15534 -0.3426169,0.34531 v 0.41449 l 0.08935,0.22035 c 0.047388,0.11713 0.1456045,0.18541 0.2714038,0.18541 h 8.1125802 c 1.573204,0 2.863856,1.29133 2.863856,2.86453 v 3.98105 h 0.291559 c 0.42592,4.1e-4 0.779951,-0.35336 0.779951,-0.77927 v -4.71533 c 0,-1.38447 -1.129389,-2.51587 -2.513851,-2.51587 z m 6.4572781,6.29202 c -0.332804,-0.003 -0.665925,0.16499 -0.863254,0.50318 l -0.573712,0.98485 c -0.346754,0.5942 -0.933214,1.01165 -1.607603,1.14742 l -1.117193,0.2237 c -0.767447,0.15449 -1.064593,1.04802 -0.543479,1.63246 l 0.759127,0.85049 c 0.457818,0.51347 0.673824,1.19831 0.594535,1.8817 l -0.132341,1.13264 c -0.09027,0.77794 0.667217,1.33823 1.383892,1.02315 l 1.043298,-0.45951 c 0.629722,-0.27697 1.347666,-0.27181 1.973058,0.0148 l 1.035906,0.47495 c 0.711684,0.32622 1.477487,-0.22102 1.399344,-1.0003 l -0.11219,-1.13265 c -0.06864,-0.68456 0.158982,-1.36732 0.62477,-1.87362 l 0.769204,-0.83773 c 0.530147,-0.57626 0.246994,-1.47407 -0.517953,-1.64051 l -1.111818,-0.24391 c -0.672191,-0.14625 -1.252005,-0.57342 -1.589466,-1.17295 l -0.558932,-0.99291 c -0.192074,-0.3412 -0.522391,-0.51267 -0.855193,-0.51527 z"
		/>
	</g>
</svg>