<svg version="1.1" xmlns="http://www.w3.org/2000/svg" viewBox="-40 -40 642 642"><path d="M63.648,506.736h220.32v50.186H29.376c-4.488,0-8.16-1.531-11.016-4.59c-2.856-3.062-4.284-6.834-4.284-11.322V149.94v-29.988v-1.836h0.612c0-0.816,0.408-1.632,1.224-2.448L130.968,2.448V0.612h3.672C135.048,0.204,135.456,0,135.864,0h29.376l1.224,0.612H391.68c4.485,0,8.16,1.428,11.016,4.284c2.856,2.856,4.284,6.528,4.284,11.016v170.136h-49.572V50.184h-186.66v99.756c0,4.08-1.836,6.12-5.508,6.12H63.648V506.736z M534.889,353.125H429.624V247.248c0-5.304-2.649-7.956-7.956-7.956h-74.052c-5.304,0-7.956,2.652-7.956,7.956v105.877H233.784c-5.304,0-7.956,2.648-7.956,7.955v74.053c0,5.303,2.652,7.955,7.956,7.955H339.66v105.877c0,5.303,2.652,7.955,7.956,7.955h74.052c5.307,0,7.956-2.652,7.956-7.955V443.088H534.89c5.304,0,7.956-2.652,7.956-7.955V361.08C542.845,355.775,540.192,353.125,534.889,353.125z"/></svg>